<?xml version="1.0" encoding="utf-8"?>
<!-- Generator: Adobe Illustrator 21.1.0, SVG Export Plug-In . SVG Version: 6.00 Build 0)  -->
<svg version="1.1" id="Layer_1" xmlns="http://www.w3.org/2000/svg" xmlns:xlink="http://www.w3.org/1999/xlink" x="0px" y="0px"
	 viewBox="0 0 1502 890" style="enable-background:new 0 0 1502 890;" xml:space="preserve">
<style type="text/css">
	.st0{fill:url(#SVGID_1_);}
	.st1{fill:url(#SVGID_2_);}
	.st2{fill:none;stroke:#FFFFFF;stroke-width:2;stroke-linecap:round;stroke-linejoin:round;}
	.st3{fill:none;stroke:#FFFFFF;stroke-width:2;stroke-miterlimit:10;}
	.st4{fill:#FFFFFF;stroke:#FFFFFF;stroke-width:0.75;stroke-miterlimit:10;}
	.st5{fill:#FFFFFF;}
	.st6{font-family:'Poppins-Light';}
	.st7{font-size:21.928px;}
	.st8{letter-spacing:2.9;}
	.st9{fill:none;stroke:#DCB952;stroke-miterlimit:10;}
</style>
<title>frontcover</title>
<g id="Layer_1_1_">

		<linearGradient id="SVGID_1_" gradientUnits="userSpaceOnUse" x1="1055.5781" y1="1098.1699" x2="446.4218" y2="-208.1699" gradientTransform="matrix(1 0 0 -1 0 890)">
		<stop  offset="0" style="stop-color:#6B7A8F"/>
		<stop  offset="0.3462" style="stop-color:#6B7A8F;stop-opacity:0.97"/>
		<stop  offset="0.3709" style="stop-color:#677A8F;stop-opacity:0.9658"/>
		<stop  offset="0.474" style="stop-color:#5D7C8D;stop-opacity:0.9539"/>
		<stop  offset="0.5889" style="stop-color:#5A7C8D;stop-opacity:0.95"/>
		<stop  offset="0.8162" style="stop-color:#5B7777;stop-opacity:0.9"/>
		<stop  offset="0.905" style="stop-color:#5A7777;stop-opacity:0.8839"/>
		<stop  offset="0.937" style="stop-color:#557879;stop-opacity:0.8256"/>
		<stop  offset="0.9598" style="stop-color:#4C7A7C;stop-opacity:0.7242"/>
		<stop  offset="0.9783" style="stop-color:#407D80;stop-opacity:0.5792"/>
		<stop  offset="0.9939" style="stop-color:#308085;stop-opacity:0.3932"/>
		<stop  offset="1" style="stop-color:#288287;stop-opacity:0.3"/>
	</linearGradient>
	<rect class="st0" width="1502" height="890"/>

		<linearGradient id="SVGID_2_" gradientUnits="userSpaceOnUse" x1="-2" y1="443" x2="1500" y2="443" gradientTransform="matrix(1 0 0 -1 2 888)">
		<stop  offset="0" style="stop-color:#6B7A8F"/>
		<stop  offset="0.291" style="stop-color:#6B7A8F;stop-opacity:0.983"/>
		<stop  offset="0.3463" style="stop-color:#6B7A8F;stop-opacity:0.97"/>
		<stop  offset="0.473" style="stop-color:#647B8E;stop-opacity:0.9623"/>
		<stop  offset="0.5889" style="stop-color:#5A7C8D;stop-opacity:0.95"/>
		<stop  offset="0.6186" style="stop-color:#5A7B89;stop-opacity:0.931"/>
		<stop  offset="0.7328" style="stop-color:#5B787C;stop-opacity:0.8715"/>
		<stop  offset="0.8111" style="stop-color:#5B7777;stop-opacity:0.85"/>
		<stop  offset="0.9093" style="stop-color:#5C7979;stop-opacity:0.8288"/>
		<stop  offset="0.9446" style="stop-color:#5E8181;stop-opacity:0.7521"/>
		<stop  offset="0.9699" style="stop-color:#638F8F;stop-opacity:0.6185"/>
		<stop  offset="0.9901" style="stop-color:#69A2A2;stop-opacity:0.4293"/>
		<stop  offset="1" style="stop-color:#6DAFAF;stop-opacity:0.3"/>
	</linearGradient>
	<path class="st1" d="M1501,1v888H1V1H1501 M1502,0H0v890h1502V0z"/>
</g>
<ellipse class="st2" cx="681.4" cy="374.1" rx="13.5" ry="13.6"/>
<polyline class="st2" points="717.3,360.5 717.3,386.2 735.3,386.2 "/>
<path class="st2" d="M760.8,360.5L760.8,360.5z"/>
<path class="st2" d="M835.6,360.5L835.6,360.5z"/>
<polyline class="st2" points="786.2,360.5 798.2,386.2 810.2,360.5 "/>
<polyline class="st2" points="888.1,386.2 876.2,360.4 864.1,386.1 "/>
<path class="st3" d="M861.1,361.9"/>
<line class="st2" x1="870.1" y1="373.4" x2="882.1" y2="373.4"/>
<path class="st4" d="M759.2,200.1c107.6,0,194.7,88.1,194.7,196.7c0,19.6-2.9,39.1-8.6,57.9c1.3,0.2,2.4,1,3,2.1
	c6.1-19.6,9.2-39.9,9.2-60.4c0-110.6-88.8-200.3-198.4-200.3"/>
<path class="st4" d="M560.8,396.3c0,1.3,0,2.5,0.1,3.8c0.4-0.1,0.8-0.1,1.2-0.1c0.8,0,1.7,0.2,2.4,0.6c0-1.3-0.1-2.5-0.1-3.8
	c0-108.6,87.2-196.7,194.7-196.7V196C649.6,196,560.8,285.7,560.8,396.3z"/>
<path class="st4" d="M585.1,495.3c-0.9,0.8-2,1.2-3.2,1.2c8.8,17.7,20.1,33.9,33.7,48.3c0.7-1,1.8-1.6,3-1.7
	C605.1,529,593.8,512.9,585.1,495.3z"/>
<path class="st4" d="M930.1,497.3c-0.3,0-0.7,0-1-0.1c-0.2,0-0.3,0-0.5,0c-0.1,0-0.3,0-0.4,0c-0.2,0-0.4,0-0.6,0
	c-0.3,0-0.6,0-0.9-0.1c-34,57.6-96.2,96.3-167.5,96.3c-39.1,0-77.2-11.8-109.4-34c-0.3,1.1-1,2-1.9,2.6
	c32.7,22.5,71.6,34.6,111.3,34.6c73.1,0,136.9-39.9,171.3-99.3C930.4,497.3,930.2,497.3,930.1,497.3z"/>
<text transform="matrix(1.0253 0 0 1 613.52 678.5498)" class="st5 st6 st7 st8">MULTIMEDIA DESIGNER</text>
<line class="st9" x1="598.4" y1="695.3" x2="923" y2="695.3"/>
</svg>
